<svg width="294" height="129" viewBox="0 0 294 129" fill="none" xmlns="http://www.w3.org/2000/svg">
<g opacity="0.25">
<path d="M293.5 40C293.5 42.5213 291.806 45.0875 288.319 47.659C284.846 50.2209 279.692 52.713 273.007 55.0989C259.642 59.8685 240.275 64.1724 216.309 67.7899C168.385 75.0237 102.161 79.5 29 79.5C-44.1608 79.5 -110.385 75.0237 -158.309 67.7899C-182.275 64.1724 -201.642 59.8685 -215.007 55.0989C-221.692 52.713 -226.846 50.2209 -230.319 47.659C-233.806 45.0875 -235.5 42.5213 -235.5 40C-235.5 37.4787 -233.806 34.9125 -230.319 32.341C-226.846 29.7791 -221.692 27.287 -215.007 24.9011C-201.642 20.1315 -182.275 15.8276 -158.309 12.2101C-110.385 4.97631 -44.1608 0.5 29 0.5C102.161 0.5 168.385 4.97631 216.309 12.2101C240.275 15.8276 259.642 20.1315 273.007 24.9011C279.692 27.287 284.846 29.7791 288.319 32.341C291.806 34.9125 293.5 37.4787 293.5 40Z" stroke="white"/>
<path d="M293.5 52C293.5 54.5213 291.806 57.0875 288.319 59.659C284.846 62.2209 279.692 64.713 273.007 67.0989C259.642 71.8685 240.275 76.1724 216.309 79.7899C168.385 87.0237 102.161 91.5 29 91.5C-44.1608 91.5 -110.385 87.0237 -158.309 79.7899C-182.275 76.1724 -201.642 71.8685 -215.007 67.0989C-221.692 64.713 -226.846 62.2209 -230.319 59.659C-233.806 57.0875 -235.5 54.5213 -235.5 52C-235.5 49.4787 -233.806 46.9125 -230.319 44.341C-226.846 41.7791 -221.692 39.287 -215.007 36.9011C-201.642 32.1315 -182.275 27.8276 -158.309 24.2101C-110.385 16.9763 -44.1608 12.5 29 12.5C102.161 12.5 168.385 16.9763 216.309 24.2101C240.275 27.8276 259.642 32.1315 273.007 36.9011C279.692 39.287 284.846 41.7791 288.319 44.341C291.806 46.9125 293.5 49.4787 293.5 52Z" stroke="white"/>
<path d="M293.5 65C293.5 67.5213 291.806 70.0875 288.319 72.659C284.846 75.2209 279.692 77.713 273.007 80.0989C259.642 84.8685 240.275 89.1724 216.309 92.7899C168.385 100.024 102.161 104.5 29 104.5C-44.1608 104.5 -110.385 100.024 -158.309 92.7899C-182.275 89.1724 -201.642 84.8685 -215.007 80.0989C-221.692 77.713 -226.846 75.2209 -230.319 72.659C-233.806 70.0875 -235.5 67.5213 -235.5 65C-235.5 62.4787 -233.806 59.9125 -230.319 57.341C-226.846 54.7791 -221.692 52.287 -215.007 49.9011C-201.642 45.1315 -182.275 40.8276 -158.309 37.2101C-110.385 29.9763 -44.1608 25.5 29 25.5C102.161 25.5 168.385 29.9763 216.309 37.2101C240.275 40.8276 259.642 45.1315 273.007 49.9011C279.692 52.287 284.846 54.7791 288.319 57.341C291.806 59.9125 293.5 62.4787 293.5 65Z" stroke="white"/>
<path d="M293.5 77C293.5 79.5213 291.806 82.0875 288.319 84.659C284.846 87.2209 279.692 89.713 273.007 92.0989C259.642 96.8685 240.275 101.172 216.309 104.79C168.385 112.024 102.161 116.5 29 116.5C-44.1608 116.5 -110.385 112.024 -158.309 104.79C-182.275 101.172 -201.642 96.8685 -215.007 92.0989C-221.692 89.713 -226.846 87.2209 -230.319 84.659C-233.806 82.0875 -235.5 79.5213 -235.5 77C-235.5 74.4787 -233.806 71.9125 -230.319 69.341C-226.846 66.7791 -221.692 64.287 -215.007 61.9011C-201.642 57.1315 -182.275 52.8276 -158.309 49.2101C-110.385 41.9763 -44.1608 37.5 29 37.5C102.161 37.5 168.385 41.9763 216.309 49.2101C240.275 52.8276 259.642 57.1315 273.007 61.9011C279.692 64.287 284.846 66.7791 288.319 69.341C291.806 71.9125 293.5 74.4787 293.5 77Z" stroke="white"/>
<path d="M293.5 89C293.5 91.5213 291.806 94.0875 288.319 96.659C284.846 99.2209 279.692 101.713 273.007 104.099C259.642 108.868 240.275 113.172 216.309 116.79C168.385 124.024 102.161 128.5 29 128.5C-44.1608 128.5 -110.385 124.024 -158.309 116.79C-182.275 113.172 -201.642 108.868 -215.007 104.099C-221.692 101.713 -226.846 99.2209 -230.319 96.659C-233.806 94.0875 -235.5 91.5213 -235.5 89C-235.5 86.4787 -233.806 83.9125 -230.319 81.341C-226.846 78.7791 -221.692 76.287 -215.007 73.9011C-201.642 69.1315 -182.275 64.8276 -158.309 61.2101C-110.385 53.9763 -44.1608 49.5 29 49.5C102.161 49.5 168.385 53.9763 216.309 61.2101C240.275 64.8276 259.642 69.1315 273.007 73.9011C279.692 76.287 284.846 78.7791 288.319 81.341C291.806 83.9125 293.5 86.4787 293.5 89Z" stroke="white"/>
</g>
</svg>
